<svg width="43" height="42" viewBox="0 0 43 42" fill="none" xmlns="http://www.w3.org/2000/svg">
<g clip-path="url(#clip0)">
<path d="M9.00095 14.1764L27.8551 33.0468L28.6157 39.4839C28.6187 39.5089 28.6294 39.5312 28.6347 39.5557C28.6359 39.5605 28.6374 39.565 28.6384 39.57C28.6862 39.7666 28.8081 39.9328 28.9804 40.0355C30.5031 41.3013 32.4288 41.9996 34.42 41.9996C39.1506 41.9996 42.9992 38.1477 42.9992 33.4131C42.9992 30.7305 41.7815 28.2651 39.6614 26.6279L19.458 6.67913C19.3082 6.53089 19.1035 6.45101 18.8929 6.46378L16.3762 6.59224L10.0017 0.219248C9.83208 0.0494753 9.59415 -0.0286511 9.35447 0.00865888L0.632927 1.38337C0.353968 1.42744 0.123545 1.62426 0.0362295 1.89294C-0.0513362 2.16187 0.0194676 2.45659 0.219117 2.65667L8.78104 11.2259V13.6453C8.78129 13.8444 8.86035 14.0355 9.00095 14.1764ZM34.4203 40.4972C33.0182 40.4972 31.6584 40.0743 30.5096 39.3028L31.3555 38.4487C32.3405 39.1834 33.5404 39.588 34.7803 39.588C37.9627 39.588 40.5514 36.9964 40.5514 33.8117C40.5514 33.3968 40.2154 33.0605 39.8008 33.0605C39.3862 33.0605 39.0502 33.3968 39.0502 33.8117C39.0502 36.1683 37.1346 38.0856 34.7803 38.0856C33.9374 38.0856 33.1253 37.8224 32.4338 37.3599L40.2767 29.4415C41.0635 30.5958 41.4983 31.965 41.4983 33.4131C41.4983 37.3194 38.3229 40.4972 34.4203 40.4972ZM38.5479 27.6388C38.5531 27.6446 38.5546 27.6528 38.5606 27.6586C38.5771 27.6759 38.6009 27.6942 38.6227 27.7127L39.2559 28.3379L29.9236 37.7603L29.3152 32.6116C29.2957 32.4443 29.2196 32.2878 29.1008 32.1686L10.2824 13.3341V8.40741L18.6394 7.98072L38.5479 27.6388ZM9.49357 6.94355C9.09452 6.96384 8.78104 7.29337 8.78104 7.69376V9.10152L6.25089 6.56895L13.0955 5.43538L14.3557 6.69516L9.49357 6.94355ZM9.21136 1.55214L11.7885 4.12878L4.94516 5.2621L2.32319 2.63788L9.21136 1.55214Z" fill="black"/>
<path d="M23.3733 23.4291C23.3756 23.4311 23.3773 23.4336 23.3796 23.4353L27.6533 27.713C27.6548 27.7142 27.6558 27.7155 27.657 27.7167L30.2977 30.3597C30.4383 30.5004 30.6292 30.5798 30.8284 30.5798C30.8286 30.5798 30.8291 30.5798 30.8296 30.5798C31.0293 30.5793 31.2202 30.4994 31.3608 30.3577L34.0283 27.6704C34.3195 27.3769 34.3188 26.9027 34.0263 26.6099L19.4311 12.0025C19.1379 11.709 18.663 11.709 18.3698 12.0025L16.9557 13.4177C16.9527 13.421 16.9492 13.4237 16.9462 13.4272L15.6938 14.6808C15.4006 14.9742 15.4006 15.4495 15.6938 15.743L23.3733 23.4291ZM17.8677 14.6294L19.6383 14.3342L22.6122 17.3107L19.8447 17.7732L17.2857 15.2121L17.8677 14.6294ZM26.8904 21.5921L24.1221 22.0541L21.1489 19.0783L23.9165 18.6158L26.8904 21.5921ZM31.1686 25.874L28.4003 26.3357L25.4266 23.3597L28.1949 22.8977L31.1686 25.874ZM30.8266 28.7644L29.7043 27.6413L32.3853 27.1941L30.8266 28.7644Z" fill="black"/>
</g>
<defs>
<clipPath id="clip0">
<rect width="43" height="42" fill="white"/>
</clipPath>
</defs>
</svg>
